<?xml version="1.0" encoding="UTF-8" standalone="no"?>
<!-- Created with Inkscape (http://www.inkscape.org/) -->

<svg
   width="280"
   height="600"
   viewBox="0 0 280 600.00002"
   version="1.1"
   id="svg2530"
   inkscape:version="1.1 (c68e22c387, 2021-05-23)"
   sodipodi:docname="character.svg"
   inkscape:export-filename="D:\juegos\Nacido del Fuego\game\images\character.webp"
   inkscape:export-xdpi="96"
   inkscape:export-ydpi="96"
   xmlns:inkscape="http://www.inkscape.org/namespaces/inkscape"
   xmlns:sodipodi="http://sodipodi.sourceforge.net/DTD/sodipodi-0.dtd"
   xmlns="http://www.w3.org/2000/svg"
   xmlns:svg="http://www.w3.org/2000/svg">
  <sodipodi:namedview
     id="namedview2532"
     pagecolor="#505050"
     bordercolor="#eeeeee"
     borderopacity="1"
     inkscape:pageshadow="0"
     inkscape:pageopacity="0"
     inkscape:pagecheckerboard="0"
     inkscape:document-units="px"
     showgrid="false"
     units="px"
     width="600px"
     inkscape:snap-global="false"
     inkscape:zoom="1.2044332"
     inkscape:cx="1.6605321"
     inkscape:cy="124.12477"
     inkscape:window-width="1920"
     inkscape:window-height="1017"
     inkscape:window-x="-8"
     inkscape:window-y="-8"
     inkscape:window-maximized="1"
     inkscape:current-layer="g13810"
     height="600px" />
  <defs
     id="defs2527">
    <inkscape:path-effect
       effect="powerstroke"
       id="path-effect14613"
       is_visible="true"
       lpeversion="1"
       offset_points="0.0959319,0.60795995 | 0.77961413,0.69690496"
       not_jump="false"
       sort_points="true"
       interpolator_type="CubicBezierJohan"
       interpolator_beta="0.2"
       start_linecap_type="zerowidth"
       linejoin_type="extrp_arc"
       miter_limit="4"
       scale_width="1"
       end_linecap_type="zerowidth" />
  </defs>
  <g
     inkscape:label="Capa 1"
     inkscape:groupmode="layer"
     id="layer1">
    <g
       id="g13810"
       transform="matrix(0.80839126,0,0,0.80839126,-28.578449,14.083129)"
       style="stroke-width:1.23702">
      <g
         id="g6434"
         transform="matrix(-0.93352531,-0.16558019,-0.16558019,0.93352531,456.74164,42.821694)"
         style="stroke-width:1.30475">
        <path
           style="font-variation-settings:normal;opacity:1;vector-effect:none;fill:#ce804c;fill-opacity:1;stroke:none;stroke-width:1.30474px;stroke-linecap:butt;stroke-linejoin:miter;stroke-miterlimit:4;stroke-dasharray:none;stroke-dashoffset:0;stroke-opacity:1;-inkscape-stroke:none;stop-color:#000000;stop-opacity:1"
           d="m 271.62491,182.67938 -15.34814,93.92659 c 0,0 1.25112,22.29742 9.04756,48.97927 2.34084,8.01109 -1.46667,30.84175 4.3348,34.37929 3.51418,2.14282 10.07894,-0.008 10.07894,-0.008 l 8.51777,-110.88142 12.07242,-67.54047 c 0,0 3.26692,-16.43674 -1.69736,-21.75134 -4.59071,-4.91466 -19.96095,-2.93544 -19.96095,-2.93544 z"
           id="path6430"
           sodipodi:nodetypes="ccsscccscc" />
        <path
           style="font-variation-settings:normal;opacity:1;vector-effect:none;fill:#ce804c;fill-opacity:1;stroke:none;stroke-width:1.30475px;stroke-linecap:butt;stroke-linejoin:miter;stroke-miterlimit:4;stroke-dasharray:none;stroke-dashoffset:0;stroke-opacity:1;-inkscape-stroke:none;stop-color:#000000;stop-opacity:1"
           d="m 270.19923,350.79825 -14.07687,22.08778 -4.61799,18.48529 5.31885,1.41955 5.32559,-14.57566 9.12703,0.327 -9.62377,18.97908 -10.34188,5.38457 -5.84173,5.52955 21.21015,-6.43206 16.39337,-23.79699 -2.40942,-26.93251 z"
           id="path6432"
           sodipodi:nodetypes="ccccccccccccc" />
      </g>
      <path
         style="font-variation-settings:normal;opacity:1;vector-effect:none;fill:#4f3626;fill-opacity:1;stroke:none;stroke-width:1.49927;stroke-linecap:butt;stroke-linejoin:miter;stroke-miterlimit:4;stroke-dasharray:none;stroke-dashoffset:0;stroke-opacity:1;-inkscape-stroke:none;stop-color:#000000;stop-opacity:1"
         d="m 158.15272,143.61059 c 36.96336,-17.29229 59.02133,-28.90705 98.5208,-11.1323 0.55488,0.2497 11.56275,3.21354 12.24552,3.89631 15.79222,15.79222 -17.48552,95.62788 -22.26458,113.5494 -1.26732,4.75242 -8.57135,42.76031 -9.46246,42.85933 -4.1427,0.46029 -65.25317,6.42085 -66.23714,4.45291 -5.71088,-11.42176 -14.47198,-97.01157 -14.47198,-114.66262 0,-9.42276 -6.26685,-35.25007 1.66984,-38.96303 z"
         id="path2869"
         sodipodi:nodetypes="ssssssss" />
      <path
         style="font-variation-settings:normal;opacity:1;vector-effect:none;fill:#d99c74;fill-opacity:1;stroke-width:1.49927;stroke-linecap:butt;stroke-linejoin:miter;stroke-miterlimit:4;stroke-dasharray:none;stroke-dashoffset:0;stroke-opacity:1;-inkscape-stroke:none;stop-color:#000000;stop-opacity:1"
         d="M 229.51012,75.179685 227.92687,139.17078 205.4505,149.878 185.85646,147.26118 180.81654,98.918905 207.62837,70.514706 Z"
         id="path2626"
         sodipodi:nodetypes="ccccccc" />
      <path
         style="font-variation-settings:normal;opacity:1;vector-effect:none;fill:#875c40;fill-opacity:1;stroke:none;stroke-width:1.49927;stroke-linecap:butt;stroke-linejoin:miter;stroke-miterlimit:4;stroke-dasharray:none;stroke-dashoffset:0;stroke-opacity:1;-inkscape-stroke:none;stop-color:#000000;stop-opacity:1"
         d="m 167.05855,277.75472 c 3.16696,-3.77069 9.20587,0.49361 14.75029,1.11324 5.54442,0.61963 12.29329,3.45651 18.47918,2.74112 12.80804,-1.48125 23.90763,-18.84928 35.95618,-14.25881 10.51322,4.00552 12.3238,24.52892 15.14148,30.16427 1.95555,3.91111 7.96984,13.66198 6.40106,18.3683 -3.36331,10.08994 -15.63157,17.2589 -24.21273,22.26458 -36.0742,21.04328 -43.30443,14.3052 -72.63822,-15.0286 -2.60926,-2.60926 0.27831,-15.23673 0.27831,-18.64659 0,-8.69678 0.70103,-19.96139 5.40665,-26.16866 0.14224,-0.18764 0.28814,-0.37066 0.4378,-0.54885 z"
         id="path3017"
         sodipodi:nodetypes="szaasssssss" />
      <path
         style="font-variation-settings:normal;opacity:1;vector-effect:none;fill:#875c40;fill-opacity:1;stroke:none;stroke-width:1.49927;stroke-linecap:butt;stroke-linejoin:miter;stroke-miterlimit:4;stroke-dasharray:none;stroke-dashoffset:0;stroke-opacity:1;-inkscape-stroke:none;stop-color:#000000;stop-opacity:1"
         d="m 203.05745,341.24986 c 4.14139,18.48934 7.02486,45.4925 10.14704,64.22564 6.31326,27.05801 14.58505,44.32405 19.37191,69.98719 2.6338,14.04694 15.3304,26.47596 30.30612,20.86006 7.40869,-2.77825 8.51371,-22.55691 9.05248,-27.9446 4.01003,-40.10033 2.77382,-68.70835 -0.80224,-108.0451 -1.01633,-11.17957 -6.17924,-45.35038 -14.9412,-54.11235 -0.82761,-0.8276 -6.50536,0 -7.87172,0 -21.81487,0 -34.81518,21.09954 -45.26239,35.02916 z"
         id="path3019"
         sodipodi:nodetypes="cccsssssc" />
      <path
         style="font-variation-settings:normal;opacity:1;vector-effect:none;fill:#875c40;fill-opacity:1;stroke:none;stroke-width:1.49927;stroke-linecap:butt;stroke-linejoin:miter;stroke-miterlimit:4;stroke-dasharray:none;stroke-dashoffset:0;stroke-opacity:1;-inkscape-stroke:none;stop-color:#000000;stop-opacity:1"
         d="m 162.14893,320.08521 c 29.88309,12.06944 48.17456,14.16067 48.17456,14.16067 l -11.50628,159.53984 -18.30667,-4.26798 c 0,0 -26.80549,-87.58288 -25.10183,-131.16983 0.59128,-15.12773 6.74022,-38.2627 6.74022,-38.2627 z"
         id="path3134"
         sodipodi:nodetypes="ccccsc" />
      <path
         style="font-variation-settings:normal;opacity:1;vector-effect:none;fill:#875c40;fill-opacity:1;stroke:none;stroke-width:1.49927;stroke-linecap:butt;stroke-linejoin:miter;stroke-miterlimit:4;stroke-dasharray:none;stroke-dashoffset:0;stroke-opacity:1;-inkscape-stroke:none;stop-color:#000000;stop-opacity:1"
         d="m 234.93791,473.10117 -6.69096,54.70846 25.1895,140.11662 20.07289,3.54228 14.1691,-162.15744 -18.89213,-41.72012 z"
         id="path3136"
         sodipodi:nodetypes="ccccccc" />
      <path
         style="font-variation-settings:normal;opacity:1;vector-effect:none;fill:#875c40;fill-opacity:1;stroke:none;stroke-width:1.49927;stroke-linecap:butt;stroke-linejoin:miter;stroke-miterlimit:4;stroke-dasharray:none;stroke-dashoffset:0;stroke-opacity:1;-inkscape-stroke:none;stop-color:#000000;stop-opacity:1"
         d="m 180.42427,462.2446 c 21.04164,-2.51871 25.65273,27.23069 29.4376,47.1125 5.7387,30.14524 2.97459,58.35895 0.49176,81.10747 -2.21992,20.33965 -8.38752,61.68763 -20.91731,73.59247 -2.18507,2.07608 -7.76292,-0.29517 -10.98662,-1.46215 -17.21489,-43.38477 -18.88464,-112.93712 -12.65083,-151.90373 2.81536,-16.65382 0.11558,-46.70972 14.6254,-48.44656 z"
         id="path3171"
         sodipodi:nodetypes="ssssccs" />
      <path
         style="fill:#e0ae8d;stroke-width:1.49927;stop-color:#000000"
         d="m 187.00595,29.142601 c -9.95758,3.362312 -19.69128,11.110886 -24.5907,21.237435 -3.05979,6.324273 -1.43377,21.442419 -1.43377,21.442419 l 0.98191,5.43569 3.17627,5.94752 -3.081,8.59716 7.93724,25.999565 5.03045,4.30156 17.42459,0.92736 19.9923,-12.5337 -0.18196,-13.981075 5.97662,-9.00778 c 0,0 18.79941,-9.26415 22.4356,-20.83448 3.21102,-10.217385 -4.55068,-29.651483 -12.7938,-35.517779 -10.63371,-7.567563 -28.77056,-6.100694 -40.87375,-2.013895 z"
         id="path2624"
         sodipodi:nodetypes="ssccccccccccsss" />
      <path
         style="font-variation-settings:normal;vector-effect:none;fill:#502d16;fill-opacity:1;stroke:none;stroke-width:1.23702px;stroke-linecap:butt;stroke-linejoin:miter;stroke-miterlimit:4;stroke-dasharray:none;stroke-dashoffset:0;stroke-opacity:1;-inkscape-stroke:none;stop-color:#000000"
         d="m 181.22523,74.616172 c 2.48516,-1.618197 6.48835,-3.13716 9.95581,-2.931267 2.74693,0.163111 5.16169,0.728699 7.7532,1.61605 0.70359,0.240924 7.24172,3.590204 6.89563,3.789415 -0.12275,0.07066 -11.53847,-3.076622 -14.98355,-2.813195 -3.44152,0.26315 -6.07609,1.247454 -9.14095,1.982283 -0.67358,0.161501 -0.27906,-1.101455 -0.48014,-1.643286 z"
         id="path4220" />
      <path
         style="font-variation-settings:normal;vector-effect:none;fill:#502d16;fill-opacity:1;stroke:none;stroke-width:1.23702px;stroke-linecap:butt;stroke-linejoin:miter;stroke-miterlimit:4;stroke-dasharray:none;stroke-dashoffset:0;stroke-opacity:1;-inkscape-stroke:none;stop-color:#000000"
         d="m 204.32712,80.127315 c -1.7412,-1.10939 -3.78864,-1.50042 -5.95085,-1.82965 -3.4895,-0.53134 -8.86042,-1.2005 -11.90169,0.78413 -0.40292,0.26294 -3.2754,2.15109 -2.28879,2.52666 0.72299,0.27522 3.65252,-2.816046 5.60754,-2.17815 1.14727,0.37434 0.45931,1.617414 0.87058,2.715296 0.27769,0.741304 1.62122,1.359946 2.21928,1.815264 2.14955,1.636499 4.60874,-3.89955 4.69202,-3.92068 2.98594,-0.75776 3.70862,0.47329 6.75191,0.0871 z"
         id="path4222"
         sodipodi:nodetypes="cssssssccc" />
      <path
         style="fill:#502d16;stroke:none;stroke-width:1.23702px;stroke-linecap:butt;stroke-linejoin:miter;stroke-opacity:1"
         d="m 175.77946,75.836579 c -1.74861,-1.604697 -4.43281,-3.115607 -6.57239,-2.921896 -1.69499,0.153462 -3.13356,0.705251 -4.64327,1.574273 -0.40989,0.235938 -4.0834,3.524966 -3.84308,3.722627 0.0852,0.07012 6.82838,-3.005979 9.01117,-2.736341 2.18053,0.269356 3.94519,1.248563 5.94806,1.982606 0.44018,0.16133 0.04,-1.086816 0.0995,-1.621269 z"
         id="path4308"
         sodipodi:nodetypes="csssssc" />
      <path
         style="fill:#502d16;stroke:none;stroke-width:1.23702px;stroke-linecap:butt;stroke-linejoin:miter;stroke-opacity:1"
         d="m 163.30173,80.998575 c 1.07272,-1.10939 2.33412,-1.50042 3.66622,-1.82965 2.14983,-0.53133 5.45876,-1.2005 7.33245,0.78413 0.24823,0.26294 2.01791,2.15109 1.41008,2.52666 -0.44543,0.27522 -2.25026,-2.816047 -3.45472,-2.17815 -0.66863,0.354114 0.20315,2.750381 -0.0341,3.790947 -0.18292,0.802171 -2.7182,1.076067 -3.66743,0.299298 -0.90409,-0.739828 -0.36041,-3.459235 -0.41171,-3.480365 -1.8396,-0.75776 -2.96584,0.47329 -4.84076,0.0871 z"
         id="path4310"
         sodipodi:nodetypes="csssssaccc" />
      <path
         style="font-variation-settings:normal;opacity:1;vector-effect:none;fill:#ce804c;fill-opacity:1;stroke:none;stroke-width:1.23702px;stroke-linecap:butt;stroke-linejoin:miter;stroke-miterlimit:4;stroke-dasharray:none;stroke-dashoffset:0;stroke-opacity:1;-inkscape-stroke:none;stop-color:#000000;stop-opacity:1"
         d="m 172.94811,106.78448 c 1.7298,-0.94787 3.74525,-1.99428 5.78942,-2.1075 0.82627,-0.0458 1.79637,-0.0868 2.61505,-0.17456 6.46629,-0.69282 7.98178,0.82558 6.88922,1.47308 -2.14767,1.27279 -13.97442,2.568 -15.29369,0.80898 z"
         id="path5491"
         sodipodi:nodetypes="csssc" />
      <path
         style="font-variation-settings:normal;opacity:1;vector-effect:none;fill:#d99c74;fill-opacity:1;stroke:none;stroke-width:1.49927;stroke-linecap:butt;stroke-linejoin:miter;stroke-miterlimit:4;stroke-dasharray:none;stroke-dashoffset:0;stroke-opacity:1;-inkscape-stroke:none;stop-color:#000000;stop-opacity:1"
         d="m 174.47471,108.94511 c 1.32736,0.59458 3.37961,1.96921 5.45384,1.67397 3.9246,-0.55862 7.92786,-3.32569 7.24847,-2.17967 -0.18799,0.3171 -1.47473,2.43704 -2.42133,3.06811 -2.00718,1.33812 -2.73051,1.09514 -5.25166,1.09514 -1.46681,0 -3.77154,-2.90289 -5.02932,-3.65755 z"
         id="path5493"
         sodipodi:nodetypes="cssssc" />
      <g
         id="g6428"
         transform="matrix(0.94809614,0,0,0.94809614,5.0836808,-11.684907)"
         style="stroke-width:1.30475">
        <path
           style="font-variation-settings:normal;opacity:1;vector-effect:none;fill:#ce804c;fill-opacity:1;stroke:none;stroke-width:1.30474px;stroke-linecap:butt;stroke-linejoin:miter;stroke-miterlimit:4;stroke-dasharray:none;stroke-dashoffset:0;stroke-opacity:1;-inkscape-stroke:none;stop-color:#000000;stop-opacity:1"
           d="m 254.79565,176.71311 21.72221,93.34679 -25.24473,88.06302 12.32882,10.56756 44.61859,-105.08853 c 0,0 2.60698,-77.58457 -25.18045,-102.97372 -4.96486,-4.53636 -15.57131,-13.42839 -21.1994,-9.74694 -7.4691,4.88568 -7.04504,25.83182 -7.04504,25.83182 z"
           id="path6342"
           sodipodi:nodetypes="cccccssc" />
        <path
           style="font-variation-settings:normal;opacity:1;vector-effect:none;fill:#ce804c;fill-opacity:1;stroke:none;stroke-width:1.30474px;stroke-linecap:butt;stroke-linejoin:miter;stroke-miterlimit:4;stroke-dasharray:none;stroke-dashoffset:0;stroke-opacity:1;-inkscape-stroke:none;stop-color:#000000;stop-opacity:1"
           d="m 260.41995,350.49079 -21.75655,18.54468 -5.77214,22.42612 6.66016,1.72509 6.66017,-17.68214 2.66407,6.90035 -12.43232,23.28866 -11.10027,6.46907 17.31643,1.29381 29.74875,-37.95189 -2.22005,-24.58248 z"
           id="path6344" />
      </g>
      <path
         style="font-variation-settings:normal;opacity:1;vector-effect:none;fill:#3b291d;fill-opacity:1;stroke:none;stroke-width:1.23701px;stroke-linecap:butt;stroke-linejoin:miter;stroke-miterlimit:4;stroke-dasharray:none;stroke-dashoffset:0;stroke-opacity:1;-inkscape-stroke:none;stop-color:#000000;stop-opacity:1"
         d="m 178.74747,50.47471 c -3.02437,-3.648903 15.17286,8.515438 18.3378,13.09072 2.21691,3.204778 10.67022,-4.568405 12.81903,-2.031736 4.69536,5.542847 2.55747,20.801271 3.70251,28.525917 2.11299,14.254559 8.24103,29.160799 21.91535,18.618009 2.82106,-2.17502 2.02617,-13.529033 3.8963,-17.434053 2.58614,-5.40013 9.29643,-3.916566 13.63707,-6.705401 10.14022,-6.515033 -7.36502,-31.014128 -10.57568,-38.086697 -0.89996,-1.98244 -4.93141,-13.206901 -7.236,-13.947241 -6.16972,-1.982005 -8.07091,2.757803 -8.07091,-5.632541 0,-0.797736 0.36634,-2.865538 -0.27831,-3.486809 -1.81125,-1.745575 -10.88954,-2.047842 -13.35875,-2.413946 -20.77315,-3.079989 -28.14532,-3.861763 -37.22409,2.045766 -2.60517,1.695179 -14.66476,10.171693 -19.21442,11.633258 -4.57933,1.471096 1.34179,8.845593 -3.00855,10.243127 -9.67156,3.106957 -8.27004,19.232248 2.67236,22.747463 8.18568,2.629624 8.05376,-22.651148 11.41061,-15.556538 3.28328,6.939139 16.66665,5.739458 10.57568,-1.609298 z"
         id="path6848"
         sodipodi:nodetypes="ssssssssssssssssss" />
      <path
         style="fill:#875c40;fill-opacity:1;stroke:none;stroke-width:1.23702px;stroke-linecap:butt;stroke-linejoin:miter;stroke-opacity:1"
         d="m 177.08077,643.6358 c 0.5246,3.27105 -1.47453,5.70415 -2.7551,8.26531 -4.97343,9.94685 -12.75735,19.47111 -24.00875,23.22157 -4.47643,1.49215 -22.04081,4.64976 -22.04081,9.05248 0,9.92148 13.70134,8.2653 20.86006,8.2653 15.30321,0 27.8302,-2.52147 42.50728,-4.72302 16.89672,-2.53451 23.23617,-4.14356 17.31778,-19.6793 -3.51414,-9.22465 -7.95475,-17.98097 -12.98833,-26.37027 -6.24812,-10.41354 -14.35911,1.96793 -18.89213,1.96793 z"
         id="path7272" />
      <path
         style="fill:#875c40;fill-opacity:1;stroke:none;stroke-width:1.23702px;stroke-linecap:butt;stroke-linejoin:miter;stroke-opacity:1"
         d="m 250.92508,648.69149 c -1.1442,21.12837 1.72421,41.23786 1.72421,61.85393 0,9.37241 36.15389,12.2572 44.08163,4.32946 11.86158,-11.8616 -13.14163,-55.64892 -22.82799,-65.33529 -3.6353,-3.6353 -22.68724,-6.2145 -22.97785,-0.8481 z"
         id="path7274"
         sodipodi:nodetypes="sssss" />
      <path
         style="font-variation-settings:normal;opacity:1;vector-effect:none;fill:#cc7a44;fill-opacity:1;stroke:none;stroke-width:1.49927;stroke-linecap:butt;stroke-linejoin:miter;stroke-miterlimit:4;stroke-dasharray:none;stroke-dashoffset:0;stroke-opacity:1;-inkscape-stroke:none;stop-color:#000000;stop-opacity:1"
         d="m 176.12602,78.889782 c 1.41892,1.643605 2.32995,3.362111 1.24757,5.797482 -0.90569,2.037801 -1.01573,3.701804 -1.61449,5.797481 -0.31071,1.087459 -2.22131,7.172074 -1.39433,7.999057 0.2738,0.273801 2.87404,0.08539 3.0822,0.293543 1.24332,1.243315 -3.87513,0.395561 -3.96284,0.220158 -0.32738,-0.654773 -0.67775,-2.270562 -0.5137,-3.00882 0.47105,-2.119695 2.44936,-6.911137 2.81169,-9.085094 0.38525,-2.311526 1.41752,-3.094777 1.29181,-4.964545 -0.0472,-0.702822 -0.65915,-2.182996 -0.94791,-3.049262 z"
         id="path13914"
         sodipodi:nodetypes="cssssssssc" />
      <path
         style="font-variation-settings:normal;opacity:1;vector-effect:none;fill:#cc7a44;fill-opacity:1;fill-rule:nonzero;stroke:none;stroke-width:1.49927;stroke-linecap:butt;stroke-linejoin:miter;stroke-miterlimit:4;stroke-dasharray:none;stroke-dashoffset:0;stroke-opacity:1;-inkscape-stroke:none;stop-color:#000000;stop-opacity:1"
         d="m 178.76791,98.936708 c 0.36242,0.003 1.32057,0.627035 1.60632,0.633037 0.13048,0.0027 0.26767,0.0061 0.41696,0.0099 0.42498,0.01095 1.03315,0.02978 1.45713,0.02874 0.36597,-8.99e-4 0.73372,-0.01407 1.03333,-0.07541 0.14684,-0.03006 0.3017,-0.07612 0.44743,-0.153126 0.15054,-0.07955 0.29356,-0.193514 0.40356,-0.354064 0.11263,-0.164391 0.16615,-0.341888 0.18551,-0.508298 0.0197,-0.169238 0.005,-0.332178 -0.0193,-0.471997 -0.0268,-0.155059 -0.0701,-0.309715 -0.11594,-0.450636 -0.0545,-0.167596 -0.11996,-0.338268 -0.18018,-0.486931 -0.0363,-0.08965 -0.0728,-0.176346 -0.10595,-0.253462 -0.0748,-0.174009 -0.34923,-0.456226 -0.68362,-0.833792 -0.42341,-0.47809 -0.90791,-1.083216 -1.06947,-1.48712 0.14955,0.373872 0.25736,1.187083 0.32473,1.814985 0.0533,0.496916 0.0819,0.903062 0.14797,1.056666 0.0312,0.07251 0.0664,0.154298 0.10016,0.234288 0.0579,0.137057 0.11487,0.276102 0.16076,0.401797 0.0397,0.108713 0.0663,0.194245 0.0828,0.26242 0.0141,0.05826 0.0156,0.09051 0.0196,0.08382 0.004,-0.0063 0.0167,-0.05171 0.0469,-0.09128 0.0314,-0.04119 0.067,-0.06133 0.0697,-0.05741 0.002,0.0028 -0.0317,0.0228 -0.0994,0.04159 -0.15663,0.0435 -0.41289,0.0701 -0.76981,0.08196 -0.41087,0.01365 -0.95904,0.0071 -1.40993,-4.2e-4 -0.14524,-0.0024 -0.29005,-0.0052 -0.41731,-0.0079 -0.28682,-0.006 -1.26944,0.585574 -1.63186,0.582614 z"
         id="path14611"
         inkscape:path-effect="#path-effect14613"
         inkscape:original-d="m 178.76791,98.936708 c 6.29642,0.05143 5.40947,0.681131 3.37575,-4.403151" />
      <path
         style="font-variation-settings:normal;opacity:1;vector-effect:none;fill:#eac8b1;fill-opacity:1;stroke:none;stroke-width:1.49927;stroke-linecap:butt;stroke-linejoin:miter;stroke-miterlimit:4;stroke-dasharray:none;stroke-dashoffset:0;stroke-opacity:1;-inkscape-stroke:none;stop-color:#000000;stop-opacity:1"
         d="m 177.76229,80.555782 c 0.0163,2.04987 -0.81959,3.91737 -1.18076,5.90378 -0.25757,1.4167 -4.06772,11.08534 -2.95188,12.20118 0.36009,0.36009 2.95859,0 3.73906,0 1.71729,0 4.21303,0.255 5.5102,-0.3936 1.88746,-0.94372 -2.90641,-2.15688 -3.73906,-5.90378 -0.72457,-3.26056 1.18455,-9.886 -1.37756,-11.80758 z"
         id="path5489" />
    </g>
  </g>
</svg>
